<svg width="407" height="407" viewBox="0 0 407 407" fill="none" xmlns="http://www.w3.org/2000/svg">
<path d="M240.888 78.8786L238.321 78.044L234.373 90.1989L235.913 90.6996L239.372 80.0513L240.496 92.2648L241.643 92.6376L249.785 83.3601L246.304 94.077L247.879 94.5889L251.827 82.434L249.345 81.6272L241.914 90.1138L240.888 78.8786Z" fill="#1F1F1F"/>
<path d="M262.46 101.788L264.096 102.622L264.653 88.4808L263.418 87.8514L252.324 96.6223L253.864 97.407L256.528 95.3101L262.59 98.3999L262.46 101.788ZM257.888 94.2256L262.925 90.2468L262.667 96.6614L257.888 94.2256Z" fill="#1F1F1F"/>
<path d="M268.596 105.541L270.009 106.568L282.645 102.801L276.488 111.277L277.901 112.303L285.411 101.963L283.998 100.937L271.384 104.674L277.519 96.2273L276.107 95.2008L268.596 105.541ZM282.158 96.6396C281.474 96.1422 281.534 95.3851 281.947 94.8171L282.084 94.6278L280.978 93.8235L280.819 94.042C279.941 95.2508 280.013 96.6829 281.397 97.6882C282.78 98.6936 284.164 98.3197 285.042 97.1109L285.2 96.8924L284.094 96.0882L283.956 96.2775C283.544 96.8455 282.843 97.137 282.158 96.6396Z" fill="#1F1F1F"/>
<path d="M290.131 123.754L291.365 124.988L300.401 115.95L299.166 114.715L295.259 118.623L289.711 113.073L293.618 109.165L292.383 107.93L283.348 116.968L284.583 118.203L288.566 114.219L294.114 119.769L290.131 123.754Z" fill="#1F1F1F"/>
<path d="M302.735 136.924L298.303 130.821C299.187 130.691 300.496 130.073 301.967 129.249L306.888 126.407L310.453 131.315L302.735 136.924ZM307.32 124.246L301.096 127.835C299.581 128.691 298.237 129.29 297.224 129.336L296.389 128.185L292.734 130.841L293.654 132.108L295.999 130.405L302.694 139.624L300.35 141.327L301.27 142.595L304.925 139.938L303.762 138.336L312.789 131.775L307.32 124.246Z" fill="#1F1F1F"/>
<path d="M312.183 146.989L314.863 152.249L316.242 151.546L313.562 146.286L312.183 146.989Z" fill="#1F1F1F"/>
<path d="M327.249 160.739L326.415 158.171L314.261 162.122L314.761 163.663L325.409 160.202L316.189 168.29L316.561 169.437L328.853 170.571L318.136 174.054L318.648 175.629L330.802 171.679L329.996 169.196L318.762 168.173L327.249 160.739Z" fill="#1F1F1F"/>
<path d="M321.396 191.66L321.683 193.473L333.451 185.613L333.234 184.244L319.617 180.424L319.888 182.131L323.15 183.053L324.214 189.774L321.396 191.66ZM324.827 183.517L331.007 185.253L325.666 188.815L324.827 183.517Z" fill="#1F1F1F"/>
<path d="M321.97 199.009V200.755H333.13V208.423H321.97V210.169H334.75V199.009H321.97Z" fill="#1F1F1F"/>
<path d="M320.652 222.219L320.379 223.944L333.001 225.944L333.274 224.219L320.652 222.219Z" fill="#1F1F1F"/>
<path d="M314.972 244.862L314.433 246.523L326.587 250.473L327.126 248.812L321.871 247.104L324.295 239.64L329.551 241.348L330.09 239.688L317.936 235.737L317.397 237.398L322.755 239.139L320.33 246.603L314.972 244.862Z" fill="#1F1F1F"/>
<path d="M310.694 255.119L309.901 256.675L319.828 261.735L315.972 269.305L317.431 270.049L322.08 260.923L310.694 255.119Z" fill="#1F1F1F"/>
<path d="M279.666 304.935L281.771 307.833L275.234 312.585L276.196 313.91L284.146 308.132L276.636 297.792L271.54 301.496C269.108 303.263 268.679 305.244 270.075 307.167C271.418 309.016 273.58 309.359 275.983 307.612L279.666 304.935ZM274.987 306.333C273.531 307.392 272.314 307.186 271.552 306.137C270.748 305.031 270.992 303.896 272.448 302.838L276.176 300.129L278.714 303.624L274.987 306.333Z" fill="#1F1F1F"/>
<path d="M261.142 308.06L259.586 308.853L262.004 313.601L257.642 315.824C255.124 317.108 254.496 319.125 255.517 321.13C256.587 323.231 258.507 323.748 261.024 322.465L266.942 319.448L261.142 308.06ZM260.241 321.046C258.766 321.798 257.717 321.484 257.104 320.281C256.549 319.19 256.854 318.044 258.329 317.292L262.74 315.044L264.651 318.798L260.241 321.046Z" fill="#1F1F1F"/>
<path d="M244.828 315.58L234.625 318.896L235.126 320.437L243.685 317.655L245.031 321.797L240.323 323.328L240.824 324.868L245.531 323.338L246.632 326.728L238.758 329.287L239.258 330.828L248.776 327.735L244.828 315.58Z" fill="#1F1F1F"/>
<path d="M227.946 320.483L226.222 320.756L219.949 332.357L218.311 322.01L216.586 322.283L218.585 334.906L220.309 334.632L226.588 323.067L228.22 333.379L229.945 333.106L227.946 320.483ZM224.648 336.369C225.484 336.236 225.976 336.814 226.086 337.508L226.122 337.739L227.474 337.525L227.431 337.258C227.198 335.783 226.134 334.821 224.445 335.089C222.756 335.356 222.042 336.599 222.276 338.075L222.318 338.342L223.669 338.128L223.632 337.897C223.523 337.203 223.812 336.501 224.648 336.369Z" fill="#1F1F1F"/>
<path d="M199.843 322.839H198.097V335.619H199.843V330.093H207.691V335.619H209.437V322.839H207.691V328.473H199.843V322.839Z" fill="#1F1F1F"/>
<path d="M191.967 335.383L193.965 322.76L176.596 320.008L174.597 332.631L176.322 332.904L178.067 321.881L184.165 322.847L182.42 333.87L184.144 334.143L185.89 323.12L191.987 324.087L190.242 335.109L191.967 335.383Z" fill="#1F1F1F"/>
<path d="M169.672 329.576L164.622 327.934L168.069 317.32L166.409 316.78L162.961 327.395L157.911 325.753L157.411 327.294L169.171 331.116L169.672 329.576Z" fill="#1F1F1F"/>
<path d="M150.204 309.756C146.852 308.048 143.019 309.307 141.32 312.643C139.621 315.979 140.855 319.821 144.207 321.529C147.575 323.246 151.392 321.979 153.091 318.643C154.798 315.29 153.604 311.489 150.204 309.756ZM149.468 311.2C152.034 312.508 152.754 315.339 151.487 317.825C150.246 320.263 147.508 321.394 144.942 320.086C142.377 318.778 141.69 315.882 142.924 313.46C144.165 311.022 146.903 309.892 149.468 311.2Z" fill="#1F1F1F"/>
<path d="M137.654 302.697L136.242 301.67L133.111 305.981L129.151 303.103C126.865 301.441 124.782 301.797 123.46 303.618C122.074 305.525 122.485 307.471 124.771 309.132L130.144 313.037L137.654 302.697ZM125.68 307.79C124.34 306.816 124.144 305.739 124.937 304.647C125.656 303.656 126.815 303.408 128.155 304.382L132.159 307.292L129.684 310.7L125.68 307.79Z" fill="#1F1F1F"/>
<path d="M113.649 299.737L115.558 301.646L124.594 292.608L123.448 291.462L115.533 299.38L120.076 287.987L119.223 287.134L107.757 291.704L115.724 283.735L114.553 282.564L105.518 291.602L107.363 293.448L117.836 289.26L113.649 299.737Z" fill="#1F1F1F"/>
<path d="M108.657 274.799L107.631 273.386L97.2934 280.9L98.3195 282.312L108.657 274.799Z" fill="#1F1F1F"/>
<path d="M96.6697 254.769L95.8773 253.213L84.491 259.017L85.2835 260.572L90.2068 258.063L93.7688 265.056L88.8454 267.566L89.6379 269.121L101.024 263.318L100.232 261.762L95.2121 264.32L91.6502 257.327L96.6697 254.769Z" fill="#1F1F1F"/>
<path d="M92.4479 244.488L91.9085 242.827L81.3122 246.271L78.6876 238.191L77.1298 238.697L80.2938 248.438L92.4479 244.488Z" fill="#1F1F1F"/>
<path d="M85.8657 193.371L86.1373 191.646L80.5735 190.759L80.9766 188.199C84.3716 188.394 87.21 186.221 87.7475 182.807C88.3186 179.18 85.9206 176.009 82.2232 175.42C78.5259 174.831 75.2712 177.101 74.7001 180.728C74.1738 184.071 76.1854 187.035 79.3796 187.926L78.9737 190.505L73.5165 189.635L73.2449 191.36L85.8657 193.371ZM86.1477 182.552C85.7138 185.308 83.2596 186.777 80.5044 186.338C77.8024 185.907 75.866 183.739 76.2999 180.983C76.731 178.245 79.2591 176.77 81.9433 177.198C84.6452 177.629 86.5788 179.814 86.1477 182.552Z" fill="#1F1F1F"/>
<path d="M79.0123 163.985C77.8001 167.717 79.4274 169.874 80.7597 170.666L81.3269 168.92C80.5013 168.141 79.8638 166.666 80.5645 164.509C81.3263 162.163 82.3562 161.381 83.5203 161.76C84.8384 162.188 85.2113 163.312 84.6163 165.144L84.0158 166.993L85.5393 167.488L86.1176 165.708C86.8071 163.585 87.7917 162.826 88.9558 163.205C90.3424 163.655 90.8035 165.149 90.0417 167.494C89.2743 169.857 87.727 170.717 86.6341 170.702L86.078 172.414C87.845 172.742 90.4206 171.63 91.605 167.984C92.6893 164.645 91.8344 162.266 89.4891 161.504C88.0512 161.037 86.8103 161.769 86.1013 162.845C86.1444 161.78 85.48 160.504 83.9907 160.02C82.0221 159.38 80.1021 160.63 79.0123 163.985Z" fill="#1F1F1F"/>
<path d="M96.2916 155.15L101.161 145.591L99.7173 144.855L95.6325 152.875L91.7516 150.896L93.9982 146.486L92.5549 145.75L90.3082 150.161L87.1329 148.542L90.8909 141.164L89.4476 140.429L84.9053 149.346L96.2916 155.15Z" fill="#1F1F1F"/>
<path d="M105.699 138.451L106.725 137.038L102.415 133.906L105.292 129.944C106.953 127.658 106.597 125.575 104.777 124.252C102.869 122.865 100.925 123.277 99.2639 125.563L95.3607 130.937L105.699 138.451ZM100.606 126.472C101.579 125.132 102.656 124.936 103.748 125.729C104.738 126.449 104.986 127.608 104.013 128.948L101.104 132.953L97.6972 130.477L100.606 126.472Z" fill="#1F1F1F"/>
<path d="M132.259 107.619L133.687 109.586L135.1 108.559L133.672 106.593L136.176 104.773C138.826 102.847 139.171 100.504 137.617 98.3632C136.019 96.164 133.785 95.8745 131.12 97.8111L128.616 99.6313L127.378 97.9273L125.966 98.9538L127.203 100.658L124.699 102.478C122.034 104.415 121.619 106.63 123.216 108.829C124.771 110.97 127.105 111.366 129.755 109.44L132.259 107.619ZM131.307 106.309L128.759 108.161C127.07 109.388 125.624 109.082 124.693 107.8C123.688 106.417 123.918 105.048 125.607 103.82L128.155 101.969L131.307 106.309ZM132.116 99.0901C133.805 97.8625 135.177 98.067 136.182 99.4505C137.112 100.732 136.957 102.203 135.268 103.43L132.72 105.282L129.568 100.942L132.116 99.0901Z" fill="#1F1F1F"/>
<path d="M143.062 90.2915L148.515 87.5123L153.58 97.4566L155.135 96.6638L149.335 85.2759L140.98 89.5346L143.695 96.3732C144.729 99.0381 144.834 100.116 143.503 100.795L143.23 100.934L144.006 102.457L144.391 102.261C146.765 101.051 146.557 99.1368 145.244 95.8057L143.062 90.2915Z" fill="#1F1F1F"/>
<path d="M167.308 92.3306C170.886 91.1677 172.706 87.5666 171.55 84.0057C170.393 80.4448 166.804 78.6019 163.226 79.7648C159.632 80.9333 157.828 84.5288 158.985 88.0897C160.147 91.6677 163.679 93.5102 167.308 92.3306ZM166.808 90.7898C164.069 91.6801 161.558 90.1868 160.697 87.5333C159.851 84.9311 160.988 82.1958 163.727 81.3056C166.466 80.4153 168.998 81.977 169.838 84.5621C170.683 87.1643 169.546 89.8996 166.808 90.7898Z" fill="#1F1F1F"/>
<path d="M184.656 87.8914L190.782 73.9814L189.004 74.2631L185.519 82.178L179.652 75.7447L177.661 76.0602L184.78 83.8441L182.878 88.1731L184.656 87.8914Z" fill="#1F1F1F"/>
<path d="M232.558 52.5369L234.263 52.9124L235.54 47.1112L241.734 54.5574L244.178 55.0955L237.615 46.9783L246.608 42.5444L244.2 42.0141L235.741 46.197L237.01 40.431L235.305 40.0555L232.558 52.5369Z" fill="#1F1F1F"/>
<path d="M253.86 46.5453L259.659 48.5L256.097 59.0762L257.752 59.6339L261.831 47.5224L252.944 44.5271L249.958 51.2514C248.777 53.8546 248.08 54.6834 246.664 54.2062L246.374 54.1085L245.828 55.729L246.238 55.867C248.762 56.7179 249.985 55.2305 251.447 51.9622L253.86 46.5453Z" fill="#1F1F1F"/>
<path d="M267.063 63.624L268.648 64.3574L274.012 52.7579L272.428 52.0245L267.063 63.624Z" fill="#1F1F1F"/>
<path d="M283.664 72.7079C287.011 74.7222 289.691 73.3734 290.757 72.3344L289.231 71.4154C288.443 71.8868 286.729 72.6409 284.508 71.3043C282.365 70.014 281.877 67.5775 282.855 65.3929L288.098 68.5488L288.933 67.1606L283.69 64.0046C285.179 62.1912 287.532 61.5274 289.629 62.7898C291.604 63.9779 292.021 65.8679 291.918 66.8774L293.476 67.8149C293.894 66.281 293.682 63.3168 290.474 61.3861C287.358 59.5111 283.558 60.6269 281.656 63.7889C279.754 66.951 280.533 70.8236 283.664 72.7079Z" fill="#1F1F1F"/>
<path d="M299.454 83.508L300.844 84.5649L308.576 74.3895L307.187 73.3327L303.843 77.7324L297.596 72.982L300.94 68.5822L299.55 67.5254L291.817 77.7007L293.207 78.7576L296.616 74.2718L302.863 79.0223L299.454 83.508Z" fill="#1F1F1F"/>
<path d="M312.196 79.5538L316.05 83.2061L308.377 91.3096L309.644 92.5105L317.318 84.4071L321.172 88.0594L322.286 86.8831L313.31 78.3775L312.196 79.5538Z" fill="#1F1F1F"/>
<path d="M342.136 133.791L338.605 127.127C339.498 127.122 340.881 126.694 342.452 126.085L347.724 123.961L350.564 129.321L342.136 133.791ZM348.455 121.882L341.788 124.562C340.169 125.197 338.754 125.601 337.745 125.505L337.079 124.248L333.088 126.365L333.821 127.749L336.381 126.391L341.717 136.459L339.156 137.816L339.89 139.2L343.881 137.083L342.954 135.334L352.813 130.105L348.455 121.882Z" fill="#1F1F1F"/>
<path d="M345.875 146.688C347.267 150.183 350.978 151.765 354.456 150.379C357.934 148.993 359.54 145.291 358.148 141.796C356.749 138.284 353.045 136.719 349.567 138.105C346.072 139.498 344.463 143.143 345.875 146.688ZM347.38 146.088C346.314 143.412 347.641 140.81 350.233 139.777C352.774 138.764 355.577 139.72 356.643 142.396C357.709 145.071 356.314 147.7 353.79 148.707C351.248 149.72 348.445 148.764 347.38 146.088Z" fill="#1F1F1F"/>
<path d="M351.559 163.808C352.603 167.572 355.477 168.436 356.966 168.415L356.489 166.698C355.593 166.499 353.83 165.868 353.137 163.37C352.405 160.734 354.136 158.422 356.72 157.704C359.304 156.987 361.979 158.075 362.711 160.711C363.327 162.931 362.33 164.59 361.561 165.252L362.047 167.004C363.406 166.178 365.29 163.88 364.289 160.273C363.316 156.769 359.79 154.965 356.234 155.953C352.679 156.94 350.582 160.287 351.559 163.808Z" fill="#1F1F1F"/>
<path d="M365.616 174.636L366.606 180.676L355.593 182.482L355.876 184.205L368.487 182.137L366.97 172.882L359.63 173.393C356.777 173.569 355.719 173.341 355.477 171.867L355.427 171.565L353.74 171.842L353.81 172.268C354.241 174.897 356.128 175.281 359.7 175.041L365.616 174.636Z" fill="#1F1F1F"/>
<path d="M356.713 194.303L356.808 196.047L369.569 195.355L369.474 193.611L356.713 194.303Z" fill="#1F1F1F"/>
<path d="M358.192 215.352L358.6 207.821C359.369 208.277 360.774 208.624 362.435 208.912L368.046 209.811L367.718 215.868L358.192 215.352ZM369.745 208.407L362.65 207.265C360.935 206.974 359.514 206.59 358.7 205.987L358.777 204.567L354.265 204.323L354.18 205.886L357.074 206.043L356.458 217.421L353.564 217.264L353.479 218.827L357.99 219.072L358.098 217.095L369.241 217.699L369.745 208.407Z" fill="#1F1F1F"/>
<path d="M356.429 219.415L356.041 221.778L360.839 229.569L354.924 228.599L354.641 230.322L360.556 231.292L353.523 237.143L353.127 239.559L360.686 233.283L365.797 241.272L366.184 238.909L361.373 231.426L367.253 232.39L367.535 230.667L361.656 229.703L368.604 224.148L368.991 221.786L361.573 227.756L356.429 219.415Z" fill="#1F1F1F"/>
<path d="M352.66 240.032L349.791 250.369L351.352 250.803L353.759 242.131L357.956 243.297L356.632 248.066L358.193 248.5L359.517 243.73L362.951 244.684L360.736 252.662L362.297 253.096L364.974 243.452L352.66 240.032Z" fill="#1F1F1F"/>
<path d="M344.623 264.04L343.977 265.662L355.848 270.394L356.494 268.772L351.361 266.726L354.265 259.435L359.398 261.481L360.044 259.858L348.173 255.127L347.527 256.749L352.76 258.835L349.856 266.126L344.623 264.04Z" fill="#1F1F1F"/>
<path d="M337.252 278.967L336.434 280.51L347.725 286.497L348.542 284.955L343.66 282.366L347.335 275.431L352.217 278.02L353.035 276.478L341.744 270.49L340.927 272.032L345.904 274.672L342.229 281.607L337.252 278.967Z" fill="#1F1F1F"/>
<path d="M332.246 287.204L334.719 292.731L332.124 296.56L327.864 293.67L326.884 295.115L337.461 302.289L341.238 296.717C342.813 294.392 342.544 292.448 340.413 291.003C338.864 289.952 337.296 290.084 335.903 291.402L333.327 285.609L332.246 287.204ZM336.217 293.376C337.156 291.991 338.167 291.654 339.404 292.493C340.714 293.382 340.806 294.466 339.867 295.852L337.1 299.935L333.45 297.459L336.217 293.376Z" fill="#1F1F1F"/>
<path d="M299.435 323.507L298.045 324.564L301.639 329.293L291.956 329.194L289.964 330.709L300.397 330.961L297.954 340.688L299.917 339.195L302.205 330.038L305.777 334.739L307.167 333.682L299.435 323.507Z" fill="#1F1F1F"/>
<path d="M282.448 335.025C279.224 336.965 278.263 340.884 280.193 344.093C282.122 347.301 286.034 348.287 289.257 346.347C292.496 344.398 293.442 340.488 291.512 337.28C289.573 334.056 285.717 333.057 282.448 335.025ZM283.283 336.413C285.75 334.928 288.532 335.817 289.97 338.208C291.38 340.552 290.89 343.474 288.422 344.959C285.955 346.444 283.136 345.494 281.735 343.165C280.325 340.82 280.815 337.899 283.283 336.413Z" fill="#1F1F1F"/>
<path d="M264.295 344.658L262.71 345.391L268.075 356.991L269.66 356.257L267.34 351.242L274.462 347.946L276.782 352.961L278.366 352.228L273.002 340.628L271.417 341.362L273.782 346.475L266.66 349.772L264.295 344.658Z" fill="#1F1F1F"/>
<path d="M256.102 347.923L254.448 348.481L256.344 354.11L247.198 350.924L244.827 351.723L254.634 355.294L249.214 363.731L251.551 362.944L256.642 354.997L258.527 360.592L260.182 360.034L256.102 347.923Z" fill="#1F1F1F"/>
<path d="M236.721 353.547L231.434 367.797L233.191 367.41L236.199 359.301L242.438 365.374L244.407 364.94L236.837 357.594L238.479 353.159L236.721 353.547Z" fill="#1F1F1F"/>
<path d="M223.815 355.896L222.079 356.085L222.655 361.382L217.787 361.911C214.978 362.217 213.674 363.88 213.917 366.117C214.172 368.461 215.783 369.625 218.593 369.32L225.196 368.601L223.815 355.896ZM218.364 367.715C216.718 367.894 215.849 367.228 215.703 365.886C215.571 364.669 216.263 363.707 217.909 363.528L222.83 362.992L223.285 367.18L218.364 367.715Z" fill="#1F1F1F"/>
<path d="M208.098 357.218H197.37V358.838H206.37V363.194H201.42V364.814H206.37V368.378H198.09V369.998H208.098V357.218Z" fill="#1F1F1F"/>
<path d="M182.819 355.892L181.083 355.703L179.702 368.408L181.438 368.597L182.035 363.104L189.837 363.952L189.24 369.446L190.975 369.635L192.357 356.93L190.621 356.741L190.012 362.342L182.21 361.493L182.819 355.892Z" fill="#1F1F1F"/>
<path d="M173.941 365.851L168.755 364.709L171.153 353.81L169.448 353.435L167.05 364.334L161.864 363.192L161.516 364.774L173.592 367.433L173.941 365.851Z" fill="#1F1F1F"/>
<path d="M159.725 351.008L158.071 350.45L147.136 357.82L150.48 347.892L148.826 347.334L144.746 359.446L146.401 360.003L157.324 352.668L153.991 362.562L155.646 363.119L159.725 351.008Z" fill="#1F1F1F"/>
<path d="M108.777 327.502L110.247 325.567L108.857 324.51L107.387 326.445L104.922 324.571C102.315 322.588 99.9728 322.932 98.3718 325.039C96.7273 327.203 97.0946 329.427 99.7166 331.421L102.181 333.295L100.907 334.972L102.297 336.029L103.571 334.352L106.035 336.226C108.657 338.22 110.898 337.979 112.542 335.815C114.143 333.708 113.849 331.359 111.241 329.376L108.777 327.502ZM107.796 328.791L110.304 330.698C111.966 331.962 112.089 333.435 111.131 334.697C110.096 336.058 108.72 336.233 107.058 334.969L104.551 333.062L107.796 328.791ZM100.654 330.099C98.9917 328.835 98.7918 327.462 99.8264 326.1C100.785 324.839 102.237 324.564 103.899 325.828L106.407 327.734L103.161 332.005L100.654 330.099Z" fill="#1F1F1F"/>
<path d="M97.8164 314.937C95.0857 312.349 91.0534 312.471 88.4791 315.19C85.9049 317.909 86.0014 321.943 88.7322 324.53C91.476 327.13 95.4952 326.996 98.0694 324.277C100.656 321.546 100.586 317.562 97.8164 314.937ZM96.7025 316.113C98.7931 318.094 98.6812 321.014 96.7629 323.039C94.8817 325.026 91.9366 325.335 89.846 323.354C87.7555 321.373 87.9169 318.402 89.7857 316.428C91.6669 314.441 94.612 314.132 96.7025 316.113Z" fill="#1F1F1F"/>
<path d="M88.7534 305.984L87.6233 304.653L83.0967 308.499L82.6718 298.822L81.0524 296.915L81.3646 307.349L71.5231 305.437L73.1192 307.317L82.3835 309.106L77.8843 312.928L79.0144 314.259L88.7534 305.984Z" fill="#1F1F1F"/>
<path d="M76.36 290.055L61.1681 290.419L62.178 291.909L70.822 291.701L67.49 299.746L68.6211 301.415L72.6437 291.662L77.3699 291.545L76.36 290.055Z" fill="#1F1F1F"/>
<path d="M67.1085 274.14C65.2794 270.689 62.287 270.463 60.8378 270.803L61.6723 272.378C62.5902 272.38 64.4476 272.618 65.6614 274.908C66.9426 277.325 65.7491 279.955 63.3797 281.212C61.0103 282.468 58.1647 281.981 56.8835 279.563C55.8046 277.527 56.4212 275.693 57.0299 274.881L56.1785 273.275C55.0292 274.373 53.6831 277.023 55.4364 280.331C57.1391 283.543 60.9711 284.547 64.2311 282.818C67.491 281.089 68.8196 277.369 67.1085 274.14Z" fill="#1F1F1F"/>
<path d="M51.8535 229.231L51.5712 227.508L38.9596 229.576L39.242 231.299L51.8535 229.231Z" fill="#1F1F1F"/>
<path d="M48.1099 208.466L48.518 215.997C47.7048 215.627 46.2703 215.434 44.588 215.327L38.9122 215.04L38.5839 208.983L48.1099 208.466ZM37.3754 216.619L44.5518 216.987C46.288 217.091 47.7424 217.319 48.6174 217.83L48.6944 219.25L53.2057 219.006L53.121 217.442L50.2272 217.599L49.6106 206.222L52.5043 206.065L52.4196 204.501L47.9082 204.746L48.0154 206.723L36.8717 207.327L37.3754 216.619Z" fill="#1F1F1F"/>
<path d="M49.6512 199.948L50.2285 189.235L48.6109 189.147L48.1266 198.134L43.777 197.897L44.0434 192.954L42.4258 192.866L42.1594 197.809L38.6007 197.614L39.0463 189.346L37.4288 189.258L36.8901 199.252L49.6512 199.948Z" fill="#1F1F1F"/>
<path d="M51.5719 179.49L51.8542 177.767L39.2427 175.699L38.9603 177.422L51.5719 179.49ZM37.4613 179L37.7292 177.366L35.2601 176.961L34.9923 178.595L37.4613 179ZM38.0552 175.376L38.323 173.742L35.854 173.337L35.5862 174.971L38.0552 175.376Z" fill="#1F1F1F"/>
<path d="M65.7183 130.218L67.8651 131.356L68.6827 129.813L66.5359 128.675L67.9857 125.939C69.5198 123.045 68.8005 120.789 66.4629 119.549C64.0617 118.275 61.9271 118.997 60.3846 121.908L58.9348 124.644L57.0742 123.657L56.2566 125.2L58.1171 126.186L56.6673 128.922C55.1248 131.832 55.7253 134.005 58.1265 135.278C60.4641 136.518 62.7344 135.848 64.2685 132.953L65.7183 130.218ZM64.2871 129.458L62.812 132.242C61.8343 134.087 60.4006 134.447 59.0013 133.705C57.4906 132.904 57.0955 131.573 58.0732 129.729L59.5483 126.945L64.2871 129.458ZM61.841 122.619C62.8188 120.774 64.1411 120.355 65.6518 121.156C67.0512 121.898 67.5576 123.288 66.5798 125.132L65.1047 127.916L60.3659 125.403L61.841 122.619Z" fill="#1F1F1F"/>
<path d="M75.9586 117.538L69.9971 103.555L68.9872 105.045L72.3798 113.001L63.6752 112.882L62.5441 114.551L73.0906 114.679L74.9487 119.028L75.9586 117.538Z" fill="#1F1F1F"/>
<path d="M88.7685 100.997L89.8986 99.6664L80.1596 91.3911L79.0295 92.722L83.2406 96.3002L78.1609 102.283L73.9498 98.7044L72.8197 100.035L82.5587 108.311L83.6888 106.98L79.3954 103.331L84.4751 97.3492L88.7685 100.997Z" fill="#1F1F1F"/>
<path d="M94.8332 94.5924L96.1006 93.3914L92.0164 89.0783L101.654 88.1296L103.47 86.4087L93.0707 87.2858L94.4473 77.3518L92.6573 79.048L91.3728 88.3987L87.3134 84.1117L86.046 85.3127L94.8332 94.5924Z" fill="#1F1F1F"/>
<path d="M112.272 77.6314L106.168 82.2729L99.4161 73.3873L98.0263 74.4442L105.759 84.6196L114.972 77.6137L116.725 79.9211L117.972 78.9732L115.238 75.376L113.662 76.5745L106.91 67.689L105.52 68.7459L112.272 77.6314Z" fill="#1F1F1F"/>
<path d="M123.367 72.2414L124.863 71.3411L118.275 60.3894L116.779 61.2898L123.367 72.2414Z" fill="#1F1F1F"/>
<path d="M138.906 64.1885C142.32 62.6084 143.7 58.8163 142.128 55.4181C140.557 52.0199 136.774 50.6168 133.36 52.1969C129.93 53.7845 128.567 57.5691 130.138 60.9672C131.717 64.3817 135.443 65.7912 138.906 64.1885ZM138.226 62.7181C135.613 63.9277 132.943 62.7435 131.772 60.2112C130.623 57.728 131.427 54.8768 134.04 53.6672C136.654 52.4576 139.354 53.7072 140.495 56.1741C141.643 58.6574 140.84 61.5085 138.226 62.7181Z" fill="#1F1F1F"/>
<path d="M157.994 56.5758L159.649 56.0182L155.569 43.9067L153.915 44.4644L155.678 49.7013L148.242 52.208L146.478 46.971L144.823 47.5287L148.903 59.6402L150.557 59.0825L148.759 53.7432L156.196 51.2366L157.994 56.5758Z" fill="#1F1F1F"/>
<path d="M176.076 52.1057L177.869 51.7109L169.323 40.4326L167.97 40.7307L164.966 54.552L166.653 54.1804L167.381 50.8685L174.025 49.4054L176.076 52.1057ZM167.743 49.1667L169.109 42.8942L172.982 48.0132L167.743 49.1667Z" fill="#1F1F1F"/>
<path d="M183.31 39.8285L189.394 39.1666L190.6 50.2612L192.336 50.0724L190.955 37.3672L181.632 38.3815L181.744 45.7386C181.765 48.5971 181.48 49.642 179.995 49.8036L179.69 49.8367L179.875 51.5367L180.305 51.4899C182.953 51.2018 183.439 49.3384 183.393 45.7583L183.31 39.8285Z" fill="#1F1F1F"/>
</svg>
