<svg width="704" height="1070" viewBox="0 0 704 1070" fill="none" xmlns="http://www.w3.org/2000/svg">
<path d="M462.684 15.0251C372.798 29.9414 288.429 68.2983 218.082 126.231C147.734 184.163 93.894 259.624 61.986 345.008C61.8967 345.247 61.8075 345.485 61.7185 345.724C53.0483 368.986 58.694 394.845 74.3706 414.09C91.5282 435.153 118.648 445.408 145.442 440.963L386.087 401.048C416.703 395.969 442.278 374.923 453.164 345.848L543.749 103.917C552.323 81.0167 547.975 55.2757 532.356 36.4653C518.218 19.4379 496.648 10.0449 474.743 13.1641C470.708 13.7386 466.686 14.3587 462.684 15.0251Z" fill="#393939"/>
<path d="M186.608 691.109C159.615 695.61 140.691 713.891 127.608 739.908C114.525 765.925 124.611 794.01 132.794 804.755C189.838 879.562 259.985 927.136 347.432 961.765C434.878 996.394 530.108 1006.51 622.874 991.029L623.22 990.971C626.503 990.424 629.797 989.841 633.099 989.222C655.914 984.943 673.95 968.013 681.807 946.161C690.217 922.771 685.713 896.68 669.948 877.468L509.107 681.456C489.407 657.448 458.388 645.798 427.763 650.904L186.608 691.109Z" fill="#393939"/>
<path d="M462.684 15.0251C372.798 29.9414 288.429 68.2983 218.082 126.231C147.734 184.163 93.894 259.624 61.986 345.008C61.8967 345.247 61.8075 345.485 61.7185 345.724C53.0483 368.986 58.694 394.845 74.3706 414.09C91.5282 435.153 118.648 445.408 145.442 440.963L386.087 401.048C416.703 395.969 442.278 374.923 453.164 345.848L543.749 103.917C552.323 81.0167 547.975 55.2757 532.356 36.4653C518.218 19.4379 496.648 10.0449 474.743 13.1641C470.708 13.7386 466.686 14.3587 462.684 15.0251Z" fill="#393939"/>
</svg>
