<svg width="114" height="114" viewBox="0 0 114 114" fill="none" xmlns="http://www.w3.org/2000/svg">
<ellipse cx="57.0242" cy="57.021" rx="52.5405" ry="52.5405" transform="rotate(4.80788 57.0242 57.021)" fill="#F5F5F5"/>
<path d="M62.9614 7.44331C53.7961 6.66735 44.5882 8.32096 36.2657 12.2376C27.9432 16.1543 20.8001 22.1955 15.5564 29.7525C15.5418 29.7736 15.5271 29.7947 15.5125 29.8158C14.0861 31.8752 13.9959 34.5445 15.0515 36.8163C16.2068 39.3028 18.6055 40.9799 21.3374 41.2114L45.8744 43.2906C48.9961 43.5552 52.0214 42.1327 53.8091 39.5599L68.6839 18.152C70.0919 16.1256 70.3062 13.5002 69.2454 11.2723C68.2852 9.25553 66.4082 7.80068 64.1875 7.56111C63.7784 7.51698 63.3695 7.47764 62.9614 7.44331Z" fill="#1F1F1F"/>
<path d="M19.1491 66.6983C16.3963 66.4673 13.7307 67.7287 12.1638 70.0038L11.1261 71.5105C10.3529 72.6331 10.1739 74.063 10.7075 75.3173C14.4298 84.0514 20.4632 91.6052 28.1586 97.1658C35.854 102.726 44.92 106.084 54.3811 106.876L54.4164 106.879C54.7511 106.907 55.0879 106.932 55.4264 106.953C57.765 107.102 59.9504 105.895 61.2622 103.953C62.6662 101.875 62.8739 99.211 61.8088 96.9401L50.9428 73.7721C49.6119 70.9344 46.8665 69.0239 43.7432 68.7618L19.1491 66.6983Z" fill="#1F1F1F"/>
</svg>
