<svg width="463" height="464" viewBox="0 0 463 464" fill="none" xmlns="http://www.w3.org/2000/svg">
<path d="M114.188 407.488L111.978 405.885L107.085 412.626L100.889 408.132C97.3117 405.538 94.0551 406.096 91.989 408.942C89.8237 411.926 90.4687 414.965 94.0455 417.559L102.452 423.656L114.188 407.488ZM95.4648 415.46C93.3688 413.94 93.0606 412.257 94.3003 410.549C95.4243 409.001 97.2366 408.612 99.3326 410.132L105.598 414.675L101.73 420.004L95.4648 415.46Z" fill="black"/>
<path d="M74.175 371.943C70.2364 367.576 63.9354 367.27 59.5878 371.189C55.2401 375.108 54.8942 381.406 58.8329 385.774C62.7904 390.162 69.0725 390.447 73.4201 386.528C77.7887 382.59 78.1702 376.374 74.175 371.943ZM72.2938 373.639C75.3091 376.983 74.7755 381.518 71.5356 384.438C68.3585 387.302 63.7293 387.421 60.7141 384.078C57.6988 380.734 58.3161 376.124 61.4723 373.279C64.6494 370.415 69.2786 370.296 72.2938 373.639Z" fill="black"/>
<path d="M30.5963 346.371C33.6666 351.681 37.8745 352.043 40.1886 351.323L38.7521 348.838C36.9831 348.983 34.602 348.183 32.8274 345.113C30.8979 341.776 31.0659 339.761 32.7226 338.803C34.5985 337.718 36.2951 338.46 37.8021 341.066L39.3232 343.697L41.4915 342.443L40.0268 339.91C38.2804 336.889 38.4277 334.951 40.0844 333.993C42.0578 332.852 44.276 333.877 46.2055 337.214C48.1491 340.576 47.5308 343.274 46.3712 344.529L47.7797 346.965C50.0085 345.254 51.4083 341.096 48.4084 335.908C45.6621 331.158 42.0035 329.666 38.6657 331.596C36.6192 332.779 36.173 334.988 36.6819 336.936C35.4893 335.773 33.3119 335.212 31.1923 336.438C28.3906 338.058 27.8358 341.597 30.5963 346.371Z" fill="black"/>
<path d="M33.5156 304.87L30.4243 295.373C28.9962 290.985 26.1681 289.48 22.823 290.57C20.3878 291.364 19.3313 293.483 19.4237 295.495C18.5079 294.136 16.6113 293.038 14.5507 293.709C11.2592 294.782 10.1354 297.604 11.4851 301.751L14.5154 311.061L33.5156 304.87ZM13.8842 301.028C13.0744 298.54 13.6018 296.978 15.475 296.367C17.2948 295.774 18.6942 296.709 19.504 299.197L21.6809 305.886L16.0612 307.717L13.8842 301.028ZM21.8248 298.234C20.9279 295.478 21.6158 293.863 23.6228 293.209C25.5764 292.573 27.1544 293.42 28.06 296.202L30.2979 303.078L24.0627 305.11L21.8248 298.234Z" fill="black"/>
<path d="M22.6527 261.495L22.3663 258.781L4.7626 248.058L21.0526 246.331L20.7662 243.617L0.893555 245.724L1.17992 248.438L18.7277 259.167L2.49363 260.889L2.77999 263.603L22.6527 261.495Z" fill="black"/>
<path d="M21.0485 217.884L22.0891 207.951C22.5697 203.362 20.5984 200.837 17.099 200.473C14.5515 200.208 12.7239 201.715 11.9897 203.59C11.7059 201.977 10.4202 200.202 8.26453 199.978C4.8211 199.619 2.64615 201.741 2.19185 206.078L1.17186 215.815L21.0485 217.884ZM4.67757 206.393C4.95015 203.791 6.06775 202.578 8.02742 202.782C9.9311 202.98 10.8292 204.403 10.5566 207.005L9.82384 214L3.94482 213.388L4.67757 206.393ZM13.0687 207.069C13.3706 204.186 14.6562 202.991 16.7558 203.209C18.7995 203.422 19.8964 204.838 19.5916 207.748L18.8383 214.939L12.3154 214.26L13.0687 207.069Z" fill="black"/>
<path d="M33.3542 159.708L34.2401 156.979L12.2643 159.592L11.5956 161.653L27.8654 176.622L28.6991 174.052L24.8064 170.456L28.0893 160.34L33.3542 159.708ZM22.7975 168.622L15.4159 161.825L25.3856 160.647L22.7975 168.622Z" fill="black"/>
<path d="M50.3152 124.86C53.3659 119.571 51.1787 115.421 49.523 113.785L48.1312 116.198C48.8912 117.415 50.1205 120.072 48.0961 123.582C46.1419 126.97 42.3471 127.803 38.9031 126.339L43.6831 118.052L41.4883 116.787L36.7084 125.074C33.8297 122.799 32.7229 119.141 34.6349 115.827C36.4344 112.707 39.3769 111.999 40.958 112.131L42.3779 109.669C39.9677 109.06 35.34 109.478 32.4158 114.548C29.5759 119.472 31.4317 125.379 36.4309 128.259C41.43 131.139 47.4613 129.808 50.3152 124.86Z" fill="black"/>
<path d="M56.5544 81.2881L53.7316 84.4263L68.5908 97.7835L70.2845 95.9005L57.267 84.1989L75.4304 90.3479L76.6912 88.9461L68.6061 71.4242L81.7073 83.2011L83.4387 81.2763L68.5794 67.9191L65.8507 70.9528L73.2574 86.9567L56.5544 81.2881Z" fill="black"/>
<path d="M109.233 60.4789C113.99 57.0186 114.953 50.785 111.509 46.0523C108.066 41.3197 101.838 40.3179 97.0817 43.7781C92.3027 47.2549 91.3621 53.472 94.8057 58.2047C98.2657 62.9601 104.409 63.9888 109.233 60.4789ZM107.743 58.4311C104.102 61.0801 99.6474 60.0758 97.0814 56.549C94.565 53.0906 94.9306 48.4749 98.5717 45.8259C102.213 43.1769 106.734 44.2723 109.234 47.708C111.75 51.1664 111.384 55.7821 107.743 58.4311Z" fill="black"/>
<path d="M180.443 14.8491L179.276 9.37317L191.635 6.73468L191.102 4.23059L176.073 7.4391L180.235 26.9765L189.869 24.9197C194.466 23.9384 196.338 21.3809 195.565 17.7486C194.82 14.2539 191.949 12.3928 187.407 13.3624L180.443 14.8491ZM188.017 15.8213C190.77 15.2337 192.378 16.3 192.8 18.2812C193.246 20.3726 192.177 21.8379 189.424 22.4255L182.377 23.9299L180.97 17.3257L188.017 15.8213Z" fill="black"/>
<path d="M232.107 20.6538L234.837 20.6511L234.83 0.675781L232.1 0.678415L232.107 20.6538Z" fill="black"/>
<path d="M281.664 5.68935C275.661 4.41957 272.574 7.30387 271.56 9.50505L274.369 10.0992C275.446 8.68767 277.635 7.45412 281.105 8.18803C284.877 8.98601 286.263 10.4581 285.866 12.3296C285.416 14.4488 283.729 15.2134 280.782 14.5902L277.808 13.9611L277.288 16.4106L280.152 17.0163C283.567 17.7386 284.909 19.144 284.512 21.0155C284.039 23.2447 281.791 24.2073 278.019 23.4093C274.219 22.6055 272.627 20.3422 272.47 18.641L269.717 18.0586C269.497 20.859 271.65 24.679 277.515 25.9197C282.885 27.0555 286.443 25.3351 287.244 21.5646C287.734 19.2527 286.391 17.4446 284.602 16.5198C286.265 16.4114 288.14 15.1688 288.648 12.7744C289.32 9.60939 287.061 6.83098 281.664 5.68935Z" fill="black"/>
<path d="M323.435 41.3015L325.93 42.4095L334.048 24.1568L331.553 23.0488L328.043 30.9412L316.828 25.9608L320.338 18.0684L317.843 16.9604L309.725 35.2132L312.22 36.3212L315.799 28.2745L327.014 33.2549L323.435 41.3015Z" fill="black"/>
<path d="M350.059 56.4794L363.637 66.3263L365.125 64.2768L353.734 56.016L357.734 50.5051L363.999 55.0486L365.486 52.9991L359.221 48.4556L362.494 43.9467L372.974 51.5467L374.461 49.4972L361.794 40.3112L350.059 56.4794Z" fill="black"/>
<path d="M390.035 92.1101C394.124 96.6449 398.749 95.848 400.817 94.7795L398.951 92.7106C397.558 93.057 394.651 93.4047 391.937 90.3955C389.072 87.219 389.88 82.7781 392.995 79.9706C396.109 77.1631 400.61 76.8181 403.475 79.9946C405.887 82.6695 405.651 85.6856 405.038 87.1481L406.941 89.2588C408.265 87.1556 409.297 82.6267 405.377 78.28C401.57 74.0586 395.376 73.9973 391.091 77.8599C386.806 81.7226 386.209 87.8679 390.035 92.1101Z" fill="black"/>
<path d="M446.951 153.33L449.52 161.223L432.928 166.629L433.773 169.224L450.364 163.818L452.933 171.71L455.342 170.925L449.359 152.545L446.951 153.33Z" fill="black"/>
<path d="M442.819 217.001L443.12 219.855L462.134 208.531L461.906 206.376L440.953 199.318L441.237 202.004L446.256 203.707L447.372 214.283L442.819 217.001ZM448.837 204.565L458.346 207.772L449.717 212.903L448.837 204.565Z" fill="black"/>
<path d="M431.91 298.759C430.025 304.566 433.028 308.171 434.988 309.426L435.847 306.777C434.851 305.745 433.096 303.402 434.347 299.548C435.667 295.48 439.918 293.959 443.908 295.251C447.898 296.543 450.447 300.267 449.127 304.335C448.016 307.76 445.284 309.064 443.71 309.264L442.833 311.967C445.318 312.062 449.757 310.69 451.564 305.124C453.318 299.718 450.275 294.326 444.785 292.548C439.296 290.771 433.673 293.326 431.91 298.759Z" fill="black"/>
<path d="M434.057 338.994L429.91 346.184L414.791 337.473L413.427 339.837L428.546 348.548L424.399 355.738L426.594 357.003L436.252 340.258L434.057 338.994Z" fill="black"/>
<path d="M383.981 378.55L382.062 380.684L403.196 387.233L404.645 385.622L395.874 365.327L394.068 367.336L396.16 372.206L389.046 380.114L383.981 378.55ZM397.249 374.698L401.226 383.911L391.641 380.933L397.249 374.698Z" fill="black"/>
<path d="M362.524 397.957L360.316 399.563L365.217 406.298L359.027 410.801C355.454 413.401 354.979 416.67 357.048 419.514C359.217 422.494 362.308 422.821 365.881 420.221L374.278 414.112L362.524 397.957ZM364.322 418.223C362.229 419.746 360.532 419.519 359.291 417.813C358.165 416.265 358.355 414.422 360.449 412.899L366.707 408.346L370.581 413.67L364.322 418.223Z" fill="black"/>
<path d="M332.411 437.347L324.829 440.73L317.724 424.797L315.231 425.91L322.335 441.842L314.753 445.225L315.784 447.538L333.442 439.66L332.411 437.347Z" fill="black"/>
<path d="M268.657 439.955L265.849 440.555L279.091 458.269L281.21 457.816L286.053 436.241L283.411 436.806L282.239 441.975L271.834 444.197L268.657 439.955ZM281.653 444.632L279.451 454.423L273.451 446.383L281.653 444.632Z" fill="black"/>
<path d="M240.759 443.063L238.028 443.065L238.035 460.509L226.044 460.52L226.038 443.077L223.308 443.079L223.315 463.055L240.766 463.038L240.759 443.063Z" fill="black"/>
<path d="M195.346 440.043L192.675 439.478L177.022 452.904L180.421 436.886L177.75 436.321L173.603 455.862L176.274 456.427L191.916 443.056L188.528 459.019L191.199 459.584L195.346 440.043Z" fill="black"/>
</svg>
