<svg width="144" height="35" viewBox="0 0 144 35" fill="none" xmlns="http://www.w3.org/2000/svg">
<path d="M15.7586 34.5697C12.6093 34.5339 9.52493 33.6686 6.81654 32.061C4.10815 30.4533 1.87138 28.1602 0.331651 25.4126C0.327345 25.4049 0.323042 25.3972 0.318742 25.3896C-0.0999615 24.6409 -0.043257 23.7281 0.390965 22.9884V22.9884C0.866209 22.1787 1.73873 21.6856 2.6775 21.6962L11.109 21.7914C12.1817 21.8035 13.1663 22.3875 13.6913 23.3229L18.06 31.1071C18.4735 31.8439 18.4605 32.7458 18.026 33.4705V33.4705C17.6326 34.1264 16.9452 34.5608 16.1804 34.5697C16.0395 34.5713 15.8989 34.5713 15.7586 34.5697Z" fill="#1F1F1F"/>
<path d="M15.7586 0.0123526C12.6093 0.0481323 9.52493 0.913427 6.81654 2.52106C4.10815 4.1287 1.87138 6.42187 0.331651 9.16943C0.327345 9.1771 0.323042 9.18478 0.318742 9.19247C-0.0999615 9.94113 -0.043257 10.8539 0.390965 11.5937V11.5937C0.866209 12.4033 1.73873 12.8964 2.6775 12.8858L11.109 12.7906C12.1817 12.7785 13.1663 12.1946 13.6913 11.2591L18.06 3.47492C18.4735 2.7381 18.4605 1.8362 18.026 1.11157V1.11157C17.6326 0.455628 16.9452 0.0212376 16.1804 0.0123365C16.0395 0.0106969 15.8989 0.0106824 15.7586 0.0123526Z" fill="#1F1F1F"/>
<path d="M90.438 15.7598H95.4554L93.285 10.9424H88.6034L86.4209 15.7598H90.438Z" fill="#1F1F1F"/>
<path d="M104.417 14.9418L101.778 10.9404H97.1816L102.238 18.2944V23.1445H106.443V18.3114L111.754 10.9416H107.175L104.417 14.9418Z" fill="#1F1F1F"/>
<path d="M139.002 10.9424V16.611C139.088 17.4599 138.873 18.3119 138.396 19.0191C138.16 19.2551 137.876 19.4375 137.563 19.5536C137.25 19.6698 136.916 19.717 136.583 19.692C136.243 19.7165 135.902 19.6684 135.582 19.5509C135.262 19.4335 134.971 19.2493 134.728 19.0106C134.235 18.3128 134.011 17.4607 134.097 16.611V10.9424H129.841V16.6413C129.792 17.9812 130.03 19.3162 130.54 20.5565C130.974 21.5349 131.75 22.3215 132.722 22.7694C133.263 23.021 133.833 23.2011 134.42 23.3054C135.122 23.43 135.834 23.4897 136.548 23.4836C137.797 23.5181 139.038 23.2797 140.185 22.7852C141.172 22.3319 141.976 21.5579 142.466 20.5893C142.742 20.0353 142.94 19.4456 143.054 18.8372C143.191 18.1133 143.256 17.3779 143.25 16.6413V10.9424H138.994H139.002Z" fill="#1F1F1F"/>
<path d="M65.4365 22.7726C65.3679 22.6113 65.3333 22.4375 65.3346 22.2622V21.4777C65.3851 20.6832 65.2142 19.8904 64.8411 19.1872C64.4152 18.6092 63.7797 18.2213 63.0709 18.1068C63.7857 17.9199 64.425 17.5157 64.9005 16.9501C65.3152 16.3647 65.5222 15.6575 65.4887 14.9409C65.5214 14.1423 65.3099 13.3525 64.8824 12.6771C64.391 12.0262 63.6912 11.5636 62.8999 11.3664C62.3767 11.2162 61.8416 11.1107 61.3005 11.0511C60.611 10.9732 59.9174 10.9363 59.2235 10.9408H52.4648V23.1461H56.4819V19.6746H58.9349C59.5182 19.6161 60.1052 19.7434 60.6118 20.0384C60.783 20.2196 60.9122 20.4364 60.9901 20.6732C61.0681 20.91 61.0929 21.1611 61.0629 21.4086V22.3276C61.0649 22.4845 61.0936 22.6399 61.1478 22.7872C61.1753 22.8653 61.2181 22.9372 61.2737 22.9986C61.3292 23.06 61.3965 23.1097 61.4715 23.1449H65.7772C65.6254 23.0622 65.5055 22.9312 65.4365 22.7726V22.7726ZM60.7634 16.3984C60.2684 16.5682 59.7465 16.6463 59.2235 16.6288H56.4819V14.1613H59.2707C59.8075 14.128 60.3452 14.2107 60.8471 14.4038C61.0142 14.4901 61.1514 14.6248 61.2409 14.7903C61.3304 14.9557 61.3681 15.1442 61.3491 15.3314V15.4526C61.3696 15.6526 61.3233 15.8538 61.2176 16.0249C61.1119 16.1959 60.9526 16.3272 60.7646 16.3984H60.7634Z" fill="#1F1F1F"/>
<path d="M123.516 11.3847C122.951 11.1284 122.356 10.94 121.746 10.8233C121.079 10.6957 120.401 10.6332 119.721 10.6366C118.398 10.6101 117.086 10.8715 115.874 11.4029C114.81 11.8727 113.905 12.6415 113.269 13.6158C112.957 14.1047 112.722 14.6383 112.571 15.1981C112.406 15.8141 112.324 16.4495 112.328 17.0873V17.1212C112.279 18.379 112.589 19.6249 113.222 20.7127C113.828 21.6626 114.719 22.3955 115.768 22.8056C116.354 23.0408 116.964 23.212 117.587 23.316V23.316C118.282 23.4335 118.985 23.4903 119.69 23.4858C121.011 23.5143 122.324 23.2802 123.554 22.797C124.354 22.4864 125.068 21.988 125.636 21.3438C126.203 20.6995 126.607 19.9283 126.815 19.0952C126.973 18.4551 127.05 17.7976 127.044 17.1382V17.0703C127.08 15.8431 126.755 14.6324 126.108 13.5891C125.472 12.6217 124.573 11.8566 123.516 11.3847V11.3847ZM121.958 19.2322C121.288 19.6958 120.483 19.9232 119.669 19.8785C118.854 19.9256 118.048 19.681 117.397 19.1886C117.112 18.929 116.889 18.608 116.746 18.2499C116.603 17.8918 116.543 17.5058 116.571 17.1212V17.1042C116.54 16.7057 116.599 16.3053 116.743 15.9325C116.887 15.5598 117.114 15.2243 117.405 14.9508V14.9508C118.056 14.448 118.865 14.197 119.686 14.2439C120.501 14.2004 121.305 14.4441 121.958 14.9326C122.257 15.2079 122.488 15.5476 122.635 15.9258C122.782 16.304 122.841 16.7107 122.807 17.1151C122.845 17.5105 122.787 17.9091 122.64 18.2778C122.492 18.6465 122.259 18.9746 121.958 19.2347V19.2322Z" fill="#1F1F1F"/>
<path d="M85.3266 18.1709L83.0713 23.1422H87.3782L88.2464 21.0482H93.6251L94.5104 23.1422H98.7833L96.5413 18.1709H85.3266Z" fill="#1F1F1F"/>
<path d="M72.7058 18.1945H79.7384V15.7598H72.7058V14.1253H80.5703V10.9424H68.7905V23.1477H80.8249V19.846H72.701L72.7058 18.1945Z" fill="#1F1F1F"/>
<path d="M44.8661 18.1651C44.7393 18.6167 44.4738 19.0171 44.1071 19.3097C43.4763 19.735 42.7208 19.9361 41.9621 19.8808C41.1279 19.9316 40.3026 19.6873 39.6304 19.1908C39.3411 18.9301 39.1155 18.6066 38.9708 18.245C38.8262 17.8835 38.7665 17.4936 38.7962 17.1053V17.0883C38.7645 16.6879 38.8265 16.2857 38.9771 15.9134C39.1278 15.5411 39.3631 15.209 39.6644 14.9434C40.3545 14.4432 41.196 14.1965 42.0469 14.2449C42.7625 14.2 43.4733 14.3881 44.0731 14.7809C44.4102 15.0239 44.6677 15.3615 44.8127 15.7509H49.3343C49.1867 14.7757 48.7969 13.8531 48.2005 13.0676C47.527 12.2373 46.6425 11.6037 45.6397 11.233C45.088 11.0356 44.5199 10.8875 43.9421 10.7905C43.3094 10.6855 42.6689 10.6344 42.0276 10.6377C40.6882 10.6105 39.3586 10.8718 38.1292 11.404C37.0584 11.8702 36.1472 12.6394 35.5078 13.6169C35.1882 14.1103 34.9469 14.6502 34.7924 15.2174C34.6275 15.8334 34.546 16.4688 34.5499 17.1065V17.1417C34.4967 18.4057 34.8006 19.6592 35.4266 20.7586C36.0185 21.7011 36.8994 22.4267 37.9377 22.8272C38.518 23.0522 39.1196 23.2175 39.7334 23.3207C40.428 23.4381 41.1315 23.495 41.836 23.4905C43.7322 23.5965 45.6122 23.0893 47.1978 22.0439C47.8066 21.5817 48.313 20.9983 48.6849 20.3304C49.0568 19.6626 49.2862 18.9248 49.3585 18.1638H44.8588L44.8661 18.1651Z" fill="#1F1F1F"/>
</svg>
