<svg width="144" height="36" viewBox="0 0 144 36" fill="none" xmlns="http://www.w3.org/2000/svg">
<path d="M15.7957 35.2619C12.6464 35.2261 9.56204 34.3608 6.85365 32.7532C4.14526 31.1456 1.90849 28.8524 0.368761 26.1048C0.364454 26.0972 0.360151 26.0895 0.355851 26.0818C-0.0628521 25.3331 -0.00614762 24.4204 0.428074 23.6806C0.903319 22.8709 1.77584 22.3779 2.71461 22.3885L11.1461 22.4836C12.2188 22.4957 13.2034 23.0797 13.7284 24.0152L18.0971 31.7993C18.5106 32.5362 18.4976 33.4381 18.0631 34.1627C17.6697 34.8186 16.9823 35.253 16.2175 35.2619C16.0766 35.2636 15.936 35.2636 15.7957 35.2619Z" fill="white"/>
<path d="M15.7957 0.704522C12.6464 0.740302 9.56204 1.6056 6.85365 3.21323C4.14526 4.82087 1.90849 7.11404 0.368761 9.8616C0.364454 9.86927 0.360151 9.87695 0.355851 9.88464C-0.0628521 10.6333 -0.00614762 11.5461 0.428074 12.2858C0.903319 13.0955 1.77584 13.5886 2.71461 13.578L11.1461 13.4828C12.2188 13.4707 13.2034 12.8867 13.7284 11.9513L18.0971 4.16709C18.5106 3.43027 18.4976 2.52836 18.0631 1.80374C17.6697 1.1478 16.9823 0.713407 16.2175 0.704506C16.0766 0.702866 15.936 0.702852 15.7957 0.704522Z" fill="white"/>
<path d="M90.4751 16.4519H95.4925L93.3222 11.6345H88.6405L86.458 16.4519H90.4751Z" fill="white"/>
<path d="M104.454 15.6346L101.815 11.6333H97.2188L102.275 18.9873V23.8374H106.48V19.0042L111.791 11.6345H107.212L104.454 15.6346Z" fill="white"/>
<path d="M139.039 11.6345V17.3031C139.125 18.1519 138.91 19.004 138.433 19.7111C138.197 19.9472 137.913 20.1296 137.6 20.2457C137.287 20.3619 136.953 20.4091 136.62 20.3841C136.28 20.4086 135.939 20.3605 135.619 20.243C135.299 20.1255 135.008 19.9413 134.765 19.7027C134.272 19.0049 134.049 18.1528 134.134 17.3031V11.6345H129.878V17.3334C129.829 18.6733 130.067 20.0083 130.577 21.2486C131.011 22.227 131.787 23.0136 132.759 23.4615C133.3 23.713 133.87 23.8932 134.457 23.9974C135.159 24.1221 135.872 24.1818 136.585 24.1757C137.834 24.2101 139.075 23.9718 140.222 23.4772C141.209 23.0239 142.013 22.25 142.503 21.2814C142.78 20.7274 142.977 20.1377 143.091 19.5293C143.228 18.8054 143.293 18.0699 143.287 17.3334V11.6345H139.031H139.039Z" fill="white"/>
<path d="M65.4736 23.4652C65.405 23.3038 65.3704 23.13 65.3718 22.9547V22.1702C65.4222 21.3757 65.2513 20.5829 64.8782 19.8797C64.4523 19.3017 63.8168 18.9138 63.108 18.7993C63.8229 18.6124 64.4621 18.2082 64.9376 17.6426C65.3523 17.0572 65.5593 16.35 65.5258 15.6334C65.5585 14.8348 65.3471 14.0451 64.9195 13.3696C64.4281 12.7188 63.7283 12.2561 62.937 12.0589C62.4138 11.9087 61.8787 11.8032 61.3376 11.7436C60.6481 11.6657 59.9545 11.6288 59.2606 11.6333H52.502V23.8386H56.519V20.3671H58.972C59.5554 20.3086 60.1423 20.4359 60.6489 20.7309C60.8201 20.9121 60.9493 21.1289 61.0273 21.3657C61.1052 21.6025 61.13 21.8536 61.1 22.1011V23.0201C61.102 23.177 61.1307 23.3324 61.1849 23.4797C61.2124 23.5578 61.2552 23.6297 61.3108 23.6911C61.3664 23.7525 61.4336 23.8022 61.5086 23.8374H65.8143C65.6625 23.7547 65.5426 23.6237 65.4736 23.4652ZM60.8005 17.0909C60.3055 17.2607 59.7836 17.3388 59.2606 17.3213H56.519V14.8538H59.3079C59.8446 14.8205 60.3823 14.9032 60.8842 15.0963C61.0513 15.1827 61.1885 15.3173 61.278 15.4828C61.3675 15.6482 61.4053 15.8367 61.3862 16.0239V16.1451C61.4067 16.3452 61.3605 16.5463 61.2548 16.7174C61.1491 16.8884 60.9897 17.0198 60.8017 17.0909H60.8005Z" fill="white"/>
<path d="M123.554 12.0771C122.988 11.8207 122.394 11.6323 121.783 11.5156C121.116 11.388 120.438 11.3255 119.759 11.3289C118.436 11.3024 117.123 11.5639 115.911 12.0952C114.847 12.565 113.942 13.3338 113.307 14.3081C112.995 14.797 112.759 15.3306 112.608 15.8905C112.443 16.5065 112.362 17.1419 112.366 17.7796V17.8135C112.316 19.0713 112.626 20.3172 113.259 21.405C113.865 22.3549 114.757 23.0878 115.806 23.4979C116.392 23.7332 117.002 23.9043 117.625 24.0083C118.319 24.1258 119.023 24.1826 119.727 24.1781C121.048 24.2066 122.362 23.9725 123.591 23.4894C124.392 23.1787 125.106 22.6803 125.673 22.0361C126.241 21.3919 126.645 20.6207 126.852 19.7875C127.011 19.1475 127.088 18.4899 127.081 17.8305V17.7626C127.118 16.5355 126.792 15.3247 126.145 14.2814C125.51 13.314 124.611 12.549 123.554 12.0771ZM121.996 19.9245C121.326 20.3881 120.52 20.6155 119.707 20.5708C118.891 20.6179 118.086 20.3733 117.434 19.8809C117.149 19.6213 116.926 19.3004 116.783 18.9422C116.64 18.5841 116.581 18.1981 116.608 17.8135V17.7965C116.577 17.398 116.636 16.9976 116.78 16.6249C116.925 16.2521 117.151 15.9166 117.443 15.6431C118.093 15.1403 118.903 14.8893 119.723 14.9362C120.538 14.8927 121.342 15.1364 121.996 15.6249C122.294 15.9002 122.525 16.2399 122.672 16.6181C122.82 16.9963 122.878 17.4031 122.844 17.8075C122.882 18.2028 122.825 18.6015 122.677 18.9701C122.53 19.3388 122.296 19.6669 121.996 19.927V19.9245Z" fill="white"/>
<path d="M85.3637 18.8636L83.1084 23.835H87.4153L88.2836 21.741H93.6622L94.5475 23.835H98.8204L96.5784 18.8636H85.3637Z" fill="white"/>
<path d="M72.7429 18.8866H79.7756V16.4519H72.7429V14.8174H80.6074V11.6345H68.8276V23.8398H80.862V20.5381H72.7381L72.7429 18.8866Z" fill="white"/>
<path d="M44.9032 18.8576C44.7764 19.3092 44.5109 19.7096 44.1442 20.0022C43.5134 20.4275 42.7579 20.6286 41.9992 20.5733C41.1651 20.6241 40.3397 20.3799 39.6675 19.8833C39.3782 19.6226 39.1526 19.2991 39.008 18.9375C38.8633 18.576 38.8036 18.1861 38.8333 17.7978V17.7808C38.8016 17.3805 38.8636 16.9782 39.0142 16.6059C39.1649 16.2336 39.4002 15.9015 39.7015 15.6359C40.3916 15.1357 41.2331 14.889 42.0841 14.9375C42.7996 14.8926 43.5105 15.0806 44.1102 15.4734C44.4474 15.7164 44.7048 16.054 44.8498 16.4434H49.3714C49.2238 15.4682 48.834 14.5456 48.2377 13.7601C47.5641 12.9298 46.6796 12.2962 45.6768 11.9255C45.1251 11.7281 44.557 11.5801 43.9792 11.483C43.3465 11.378 42.706 11.3269 42.0647 11.3302C40.7253 11.303 39.3958 11.5643 38.1663 12.0965C37.0955 12.5627 36.1843 13.3319 35.5449 14.3094C35.2253 14.8028 34.984 15.3427 34.8295 15.9099C34.6647 16.5259 34.5831 17.1613 34.587 17.799V17.8342C34.5339 19.0982 34.8377 20.3517 35.4637 21.4511C36.0556 22.3936 36.9365 23.1192 37.9748 23.5197C38.5551 23.7447 39.1567 23.9101 39.7705 24.0132C40.4651 24.1306 41.1686 24.1875 41.8731 24.183C43.7693 24.289 45.6493 23.7818 47.2349 22.7364C47.8437 22.2742 48.3501 21.6908 48.722 21.0229C49.0939 20.3551 49.3233 19.6173 49.3956 18.8563H44.8959L44.9032 18.8576Z" fill="white"/>
</svg>
