<svg width="53" height="39" viewBox="0 0 53 39" fill="none" xmlns="http://www.w3.org/2000/svg">
<g clip-path="url(#clip0_706_564)">
<path fill-rule="evenodd" clip-rule="evenodd" d="M8.96722 1.8219C4.52228 1.8219 0.918945 5.42523 0.918945 9.87017V30.6068C0.918945 36.8125 0.919342 36.5831 0.919593 36.4379C0.919774 36.3339 0.919879 36.273 0.91971 38.655L19.1915 33.8059L44.8443 33.7773C49.2892 33.7773 52.8925 30.1739 52.8925 25.729V9.87018C52.8925 5.42523 49.2892 1.8219 44.8443 1.8219H8.96722ZM12.1917 5.67682C8.54573 5.67682 5.59009 8.38463 5.59009 11.7249V27.3079C5.59009 31.9713 5.59041 31.799 5.59062 31.6899C5.59077 31.6117 5.59085 31.566 5.59071 33.356L20.5781 29.712L41.6198 29.6905C45.2658 29.6905 48.2214 26.9827 48.2214 23.6424V11.7249C48.2214 8.38463 45.2658 5.67682 41.6198 5.67682H12.1917Z" fill="white"/>
</g>
<defs>
<clipPath id="clip0_706_564">
<rect width="52" height="38" fill="white" transform="translate(0.918945 0.821899)"/>
</clipPath>
</defs>
</svg>
