<svg width="53" height="53" viewBox="0 0 53 53" fill="none" xmlns="http://www.w3.org/2000/svg">
<path fill-rule="evenodd" clip-rule="evenodd" d="M52.7031 26.8152C52.7031 41.2572 40.994 52.9663 26.552 52.9663C12.11 52.9663 0.400879 41.2572 0.400879 26.8152C0.400879 12.3732 12.11 0.664062 26.552 0.664062C40.994 0.664062 52.7031 12.3732 52.7031 26.8152ZM27.4891 19.9701C24.9459 21.0271 19.8617 23.2172 12.2386 26.5384C11.0008 27.0309 10.3514 27.5126 10.2925 27.9833C10.1923 28.7809 11.1904 29.0947 12.5459 29.5197C12.7311 29.5785 12.9229 29.6373 13.119 29.7027C14.4549 30.1364 16.2506 30.6442 17.1834 30.6638C18.0311 30.6812 18.9769 30.3325 20.0208 29.6177C27.1426 24.8081 30.819 22.3782 31.05 22.3259C31.2134 22.2889 31.4401 22.2409 31.5926 22.3782C31.7452 22.5133 31.7299 22.7705 31.7147 22.8402C31.6144 23.2608 27.7048 26.898 25.6781 28.7809C25.0461 29.3671 24.5994 29.7833 24.5079 29.8792C24.303 30.0906 24.0938 30.2933 23.8933 30.4872C22.6511 31.6815 21.7228 32.5793 23.9456 34.0438C25.0134 34.7477 25.8677 35.3296 26.7198 35.9092C27.6504 36.5434 28.5787 37.1754 29.7817 37.9643C30.0868 38.1648 30.3788 38.3718 30.6643 38.5745C31.7474 39.3481 32.7215 40.0411 33.9244 39.9322C34.6218 39.8668 35.3453 39.2108 35.7114 37.2517C36.5766 32.6186 38.2808 22.5852 38.6752 18.449C38.6992 18.1056 38.6846 17.7606 38.6316 17.4204C38.5999 17.1457 38.4662 16.8929 38.2568 16.7121C37.9452 16.4572 37.4614 16.4027 37.2435 16.407C36.2606 16.4245 34.7526 16.9497 27.4891 19.9701Z" fill="black"/>
</svg>
