<svg width="45" height="45" viewBox="0 0 45 45" fill="none" xmlns="http://www.w3.org/2000/svg">
<path d="M37.9419 7.1061C35.9018 5.05638 33.4723 3.43136 30.795 2.32571C28.1177 1.22007 25.2462 0.655926 22.3477 0.666152C10.2022 0.666152 0.303868 10.5171 0.292743 22.6107C0.292743 26.4841 1.31066 30.2523 3.23248 33.5885L0.114746 44.965L11.8069 41.914C15.0415 43.6663 18.6652 44.5848 22.3477 44.5857H22.3588C34.5071 44.5857 44.4026 34.7348 44.4138 22.6301C44.4165 19.7452 43.8459 16.8884 42.7347 14.224C41.6234 11.5597 39.9936 9.14062 37.9391 7.1061H37.9419ZM22.3477 40.8702C19.0631 40.8713 15.8388 39.9914 13.014 38.323L12.3465 37.9243L5.41016 39.735L7.26244 32.9988L6.82857 32.3039C4.99244 29.3976 4.02136 26.0329 4.0279 22.5996C4.0279 12.5604 12.2519 4.37065 22.3588 4.37065C24.7666 4.36635 27.1515 4.83654 29.3758 5.75413C31.6002 6.67172 33.6202 8.01855 35.3192 9.71697C37.0242 11.4088 38.3758 13.4199 39.2961 15.6343C40.2165 17.8487 40.6873 20.2226 40.6814 22.619C40.6703 32.6942 32.4462 40.8702 22.3477 40.8702ZM32.4017 27.2095C31.8538 26.9354 29.1477 25.6092 28.6388 25.4209C28.1326 25.241 27.7627 25.1468 27.4011 25.695C27.0312 26.2405 25.9744 27.4836 25.6573 27.8407C25.3403 28.209 25.0121 28.2505 24.4614 27.9792C23.9135 27.7023 22.1363 27.1264 20.0337 25.252C18.3928 23.7985 17.2942 21.9988 16.9661 21.4534C16.649 20.9052 16.9355 20.6117 17.2108 20.3376C17.4528 20.094 17.7587 19.6953 18.034 19.3797C18.3122 19.064 18.4039 18.8315 18.5847 18.466C18.7655 18.095 18.6793 17.7794 18.543 17.5053C18.4039 17.2312 17.3054 14.5262 16.8409 13.4353C16.3959 12.3583 15.9426 12.5078 15.6033 12.494C15.2862 12.4746 14.9163 12.4746 14.5464 12.4746C14.2671 12.4815 13.9922 12.5458 13.739 12.6635C13.4858 12.7812 13.2598 12.9497 13.0752 13.1584C12.569 13.7066 11.1533 15.0328 11.1533 17.7378C11.1533 20.4428 13.128 23.0426 13.4061 23.4109C13.6787 23.7791 17.2831 29.3137 22.8149 31.6948C24.1221 32.2623 25.1511 32.5973 25.9549 32.8521C27.276 33.2729 28.4691 33.2092 29.4203 33.0736C30.4771 32.913 32.6771 31.7446 33.1415 30.4627C33.5977 29.178 33.5977 28.0816 33.4586 27.8518C33.3223 27.6193 32.9524 27.4836 32.4017 27.2095Z" fill="black"/>
</svg>
